<?xml version="1.0" encoding="utf-8"?><!-- Uploaded to: SVG Repo, www.svgrepo.com, Generator: SVG Repo Mixer Tools -->
<svg fill="#000000" width="800px" height="800px" viewBox="0 0 24 24" id="clouds-strom-2" data-name="Flat Color" xmlns="http://www.w3.org/2000/svg" class="icon flat-color"><path id="secondary" d="M6,5H6a5,5,0,1,1,4,8,4.87,4.87,0,0,1-2.12-.48A3.87,3.87,0,0,1,6,13,4,4,0,0,1,6,5Z" style="fill: rgb(44, 169, 188);"></path><path id="primary" d="M7.32,9.06a6,6,0,0,1,10.9-1A4.5,4.5,0,0,1,17.5,17H8a4,4,0,0,1-.68-7.94Z" style="fill: rgb(0, 0, 0);"></path><path id="secondary-2" data-name="secondary" d="M13,21a.93.93,0,0,1-.45-.11,1,1,0,0,1-.44-1.34L13.38,17H11a1,1,0,0,1-.89-1.45l2-4a1,1,0,0,1,1.78.9L12.62,15H15a1,1,0,0,1,.89,1.45l-2,4A1,1,0,0,1,13,21Z" style="fill: rgb(44, 169, 188);"></path></svg>