<?xml version="1.0" encoding="utf-8"?><!-- Uploaded to: SVG Repo, www.svgrepo.com, Generator: SVG Repo Mixer Tools -->
<svg fill="#000000" width="800px" height="800px" viewBox="0 0 24 24" id="sun" data-name="Flat Color" xmlns="http://www.w3.org/2000/svg" class="icon flat-color"><path id="secondary" d="M12,22a1,1,0,0,1-1-1V20a1,1,0,0,1,2,0v1A1,1,0,0,1,12,22Zm6.36-2.64a1,1,0,0,1-.7-.29L17,18.36A1,1,0,0,1,18.36,17l.71.71a1,1,0,0,1,0,1.41A1,1,0,0,1,18.36,19.36Zm-12.72,0a1,1,0,0,1-.71-.29,1,1,0,0,1,0-1.41L5.64,17a1,1,0,0,1,1.41,1.41l-.71.71A1,1,0,0,1,5.64,19.36ZM21,13H20a1,1,0,0,1,0-2h1a1,1,0,0,1,0,2ZM4,13H3a1,1,0,0,1,0-2H4a1,1,0,0,1,0,2ZM17.66,7.34A1,1,0,0,1,17,7.05a1,1,0,0,1,0-1.41l.71-.71a1,1,0,1,1,1.41,1.41l-.71.71A1,1,0,0,1,17.66,7.34Zm-11.32,0a1,1,0,0,1-.7-.29l-.71-.71A1,1,0,0,1,6.34,4.93l.71.71a1,1,0,0,1,0,1.41A1,1,0,0,1,6.34,7.34ZM12,5a1,1,0,0,1-1-1V3a1,1,0,0,1,2,0V4A1,1,0,0,1,12,5Z" style="fill: rgb(44, 169, 188);"></path><circle id="primary" cx="12" cy="12" r="5" style="fill: rgb(0, 0, 0);"></circle></svg>