<?xml version="1.0" encoding="utf-8"?><!-- Uploaded to: SVG Repo, www.svgrepo.com, Generator: SVG Repo Mixer Tools -->
<svg fill="#000000" width="800px" height="800px" viewBox="0 0 24 24" id="sunlight" data-name="Flat Color" xmlns="http://www.w3.org/2000/svg" class="icon flat-color"><path id="secondary" d="M12,22a1,1,0,0,1-1-1V17a1,1,0,0,1,2,0v4A1,1,0,0,1,12,22Zm6.36-2.64a1,1,0,0,1-.7-.29l-2.83-2.83a1,1,0,0,1,1.41-1.41l2.83,2.83a1,1,0,0,1,0,1.41A1,1,0,0,1,18.36,19.36Zm-12.72,0a1,1,0,0,1-.71-.29,1,1,0,0,1,0-1.41l2.83-2.83a1,1,0,0,1,1.41,1.41L6.34,19.07A1,1,0,0,1,5.64,19.36ZM21,13H17a1,1,0,0,1,0-2h4a1,1,0,0,1,0,2ZM7,13H3a1,1,0,0,1,0-2H7a1,1,0,0,1,0,2Zm8.54-3.54a1,1,0,0,1-.71-.29,1,1,0,0,1,0-1.41l2.83-2.83a1,1,0,1,1,1.41,1.41L16.24,9.17A1,1,0,0,1,15.54,9.46Zm-7.08,0a1,1,0,0,1-.7-.29L4.93,6.34A1,1,0,0,1,6.34,4.93L9.17,7.76a1,1,0,0,1,0,1.41A1,1,0,0,1,8.46,9.46ZM12,8a1,1,0,0,1-1-1V3a1,1,0,0,1,2,0V7A1,1,0,0,1,12,8Z" style="fill: rgb(44, 169, 188);"></path><circle id="primary" cx="12" cy="12" r="6" style="fill: rgb(0, 0, 0);"></circle></svg>