<?xml version="1.0" encoding="utf-8"?><!-- Uploaded to: SVG Repo, www.svgrepo.com, Generator: SVG Repo Mixer Tools -->
<svg fill="#000000" width="800px" height="800px" viewBox="0 0 24 24" id="sun-cloudy" data-name="Flat Color" xmlns="http://www.w3.org/2000/svg" class="icon flat-color"><path id="secondary" d="M8,4V3a1,1,0,0,1,2,0V4A1,1,0,0,1,8,4Zm7.37.64a1,1,0,0,0-1.42,0l-.71.7a1,1,0,0,0,0,1.42,1,1,0,0,0,1.42,0l.7-.71A1,1,0,0,0,15.37,4.64Zm-10.61.7-.71-.7A1,1,0,0,0,2.64,6.05l.7.71a1,1,0,0,0,1.42,0A1,1,0,0,0,4.76,5.34ZM9,7a4,4,0,1,0,4,4A4,4,0,0,0,9,7Z" style="fill: rgb(44, 169, 188);"></path><path id="primary" d="M17.33,10.82A5,5,0,0,0,13.5,9a5.15,5.15,0,0,0-4.84,3.6A3.6,3.6,0,0,0,5,16.3,3.61,3.61,0,0,0,8.5,20h9.17A4.47,4.47,0,0,0,22,15.4,4.41,4.41,0,0,0,17.33,10.82Z" style="fill: rgb(0, 0, 0);"></path></svg>