<?xml version="1.0" encoding="utf-8"?><!-- Uploaded to: SVG Repo, www.svgrepo.com, Generator: SVG Repo Mixer Tools -->
<svg fill="#000000" width="800px" height="800px" viewBox="0 0 24 24" id="storm" data-name="Flat Color" xmlns="http://www.w3.org/2000/svg" class="icon flat-color"><path id="primary" d="M17,4a4.36,4.36,0,0,0-.51,0A6,6,0,0,0,12,2,6,6,0,0,0,6.35,6,4,4,0,1,0,6,14H17A5,5,0,0,0,17,4Z" style="fill: rgb(0, 0, 0);"></path><path id="secondary" d="M16,14.79a1,1,0,0,0-.52-.61l-1.15-.57V10a1,1,0,0,0-.7-.95,1,1,0,0,0-1.11.36L8.19,15.34a1,1,0,0,0,.5,1.53l1.88.62V21a1,1,0,0,0,.74,1l.26,0a1,1,0,0,0,.87-.5l3.43-5.92A1,1,0,0,0,16,14.79Z" style="fill: rgb(44, 169, 188);"></path></svg>